<svg xmlns="http://www.w3.org/2000/svg" width="980" height="540" viewBox="0 0 980 540">
<rect width="100%" height="100%" fill="#fbfbf8"/>
<text x="40" y="42" font-family="Arial, sans-serif" font-size="24" font-weight="700" fill="#1f2933">M0: fixed-substrate subthreshold directional bias</text>
<text x="40" y="68" font-family="Arial, sans-serif" font-size="14" fill="#52606d">S0 B1 remains below threshold; direction signal is diagnostic only.</text>
<rect x="70" y="88" width="820" height="280" fill="#ffffff" stroke="#cbd2d9"/>
<rect x="70.00" y="88.00" width="39.15" height="16.57" fill="#0d0da4"/>
<rect x="109.05" y="88.00" width="39.15" height="16.57" fill="#0b0ba3"/>
<rect x="148.10" y="88.00" width="39.15" height="16.57" fill="#0808a2"/>
<rect x="187.14" y="88.00" width="39.15" height="16.57" fill="#0404a1"/>
<rect x="226.19" y="88.00" width="39.15" height="16.57" fill="#0000a0"/>
<rect x="265.24" y="88.00" width="39.15" height="16.57" fill="#0505a1"/>
<rect x="304.29" y="88.00" width="39.15" height="16.57" fill="#2727ac"/>
<rect x="343.33" y="88.00" width="39.15" height="16.57" fill="#7d7ec8"/>
<rect x="382.38" y="88.00" width="39.15" height="16.57" fill="#f5eae4"/>
<rect x="421.43" y="88.00" width="39.15" height="16.57" fill="#fb8f8d"/>
<rect x="460.48" y="88.00" width="39.15" height="16.57" fill="#ff5f5f"/>
<rect x="499.52" y="88.00" width="39.15" height="16.57" fill="#fd7372"/>
<rect x="538.57" y="88.00" width="39.15" height="16.57" fill="#f8bbb7"/>
<rect x="577.62" y="88.00" width="39.15" height="16.57" fill="#d3d5e5"/>
<rect x="616.67" y="88.00" width="39.15" height="16.57" fill="#7576c6"/>
<rect x="655.71" y="88.00" width="39.15" height="16.57" fill="#4041b5"/>
<rect x="694.76" y="88.00" width="39.15" height="16.57" fill="#2626ac"/>
<rect x="733.81" y="88.00" width="39.15" height="16.57" fill="#1a1aa8"/>
<rect x="772.86" y="88.00" width="39.15" height="16.57" fill="#1313a6"/>
<rect x="811.90" y="88.00" width="39.15" height="16.57" fill="#1010a5"/>
<rect x="850.95" y="88.00" width="39.15" height="16.57" fill="#0e0fa4"/>
<rect x="70.00" y="104.47" width="39.15" height="16.57" fill="#0d0da4"/>
<rect x="109.05" y="104.47" width="39.15" height="16.57" fill="#0b0ba3"/>
<rect x="148.10" y="104.47" width="39.15" height="16.57" fill="#0808a2"/>
<rect x="187.14" y="104.47" width="39.15" height="16.57" fill="#0404a1"/>
<rect x="226.19" y="104.47" width="39.15" height="16.57" fill="#0000a0"/>
<rect x="265.24" y="104.47" width="39.15" height="16.57" fill="#0606a2"/>
<rect x="304.29" y="104.47" width="39.15" height="16.57" fill="#292aad"/>
<rect x="343.33" y="104.47" width="39.15" height="16.57" fill="#7f80c9"/>
<rect x="382.38" y="104.47" width="39.15" height="16.57" fill="#f5eae4"/>
<rect x="421.43" y="104.47" width="39.15" height="16.57" fill="#fb918f"/>
<rect x="460.48" y="104.47" width="39.15" height="16.57" fill="#fe6262"/>
<rect x="499.52" y="104.47" width="39.15" height="16.57" fill="#fd7675"/>
<rect x="538.57" y="104.47" width="39.15" height="16.57" fill="#f8bbb7"/>
<rect x="577.62" y="104.47" width="39.15" height="16.57" fill="#d5d7e5"/>
<rect x="616.67" y="104.47" width="39.15" height="16.57" fill="#7778c7"/>
<rect x="655.71" y="104.47" width="39.15" height="16.57" fill="#4142b5"/>
<rect x="694.76" y="104.47" width="39.15" height="16.57" fill="#2727ac"/>
<rect x="733.81" y="104.47" width="39.15" height="16.57" fill="#1a1aa8"/>
<rect x="772.86" y="104.47" width="39.15" height="16.57" fill="#1313a6"/>
<rect x="811.90" y="104.47" width="39.15" height="16.57" fill="#1010a5"/>
<rect x="850.95" y="104.47" width="39.15" height="16.57" fill="#0f0fa4"/>
<rect x="70.00" y="120.94" width="39.15" height="16.57" fill="#0c0da4"/>
<rect x="109.05" y="120.94" width="39.15" height="16.57" fill="#0b0ba3"/>
<rect x="148.10" y="120.94" width="39.15" height="16.57" fill="#0808a2"/>
<rect x="187.14" y="120.94" width="39.15" height="16.57" fill="#0404a1"/>
<rect x="226.19" y="120.94" width="39.15" height="16.57" fill="#0000a0"/>
<rect x="265.24" y="120.94" width="39.15" height="16.57" fill="#0808a2"/>
<rect x="304.29" y="120.94" width="39.15" height="16.57" fill="#2c2cae"/>
<rect x="343.33" y="120.94" width="39.15" height="16.57" fill="#8283ca"/>
<rect x="382.38" y="120.94" width="39.15" height="16.57" fill="#f5eae3"/>
<rect x="421.43" y="120.94" width="39.15" height="16.57" fill="#fb9391"/>
<rect x="460.48" y="120.94" width="39.15" height="16.57" fill="#fe6565"/>
<rect x="499.52" y="120.94" width="39.15" height="16.57" fill="#fd7877"/>
<rect x="538.57" y="120.94" width="39.15" height="16.57" fill="#f8bcb8"/>
<rect x="577.62" y="120.94" width="39.15" height="16.57" fill="#d7d8e6"/>
<rect x="616.67" y="120.94" width="39.15" height="16.57" fill="#797ac7"/>
<rect x="655.71" y="120.94" width="39.15" height="16.57" fill="#4343b5"/>
<rect x="694.76" y="120.94" width="39.15" height="16.57" fill="#2828ad"/>
<rect x="733.81" y="120.94" width="39.15" height="16.57" fill="#1a1aa8"/>
<rect x="772.86" y="120.94" width="39.15" height="16.57" fill="#1314a6"/>
<rect x="811.90" y="120.94" width="39.15" height="16.57" fill="#1010a5"/>
<rect x="850.95" y="120.94" width="39.15" height="16.57" fill="#0f0fa4"/>
<rect x="70.00" y="137.41" width="39.15" height="16.57" fill="#0c0da4"/>
<rect x="109.05" y="137.41" width="39.15" height="16.57" fill="#0b0ba3"/>
<rect x="148.10" y="137.41" width="39.15" height="16.57" fill="#0808a2"/>
<rect x="187.14" y="137.41" width="39.15" height="16.57" fill="#0404a1"/>
<rect x="226.19" y="137.41" width="39.15" height="16.57" fill="#0101a0"/>
<rect x="265.24" y="137.41" width="39.15" height="16.57" fill="#0909a3"/>
<rect x="304.29" y="137.41" width="39.15" height="16.57" fill="#2e2faf"/>
<rect x="343.33" y="137.41" width="39.15" height="16.57" fill="#8486cb"/>
<rect x="382.38" y="137.41" width="39.15" height="16.57" fill="#f5eae3"/>
<rect x="421.43" y="137.41" width="39.15" height="16.57" fill="#fb9593"/>
<rect x="460.48" y="137.41" width="39.15" height="16.57" fill="#fe6968"/>
<rect x="499.52" y="137.41" width="39.15" height="16.57" fill="#fd7b79"/>
<rect x="538.57" y="137.41" width="39.15" height="16.57" fill="#f8bcb8"/>
<rect x="577.62" y="137.41" width="39.15" height="16.57" fill="#d8dae6"/>
<rect x="616.67" y="137.41" width="39.15" height="16.57" fill="#7b7cc8"/>
<rect x="655.71" y="137.41" width="39.15" height="16.57" fill="#4445b6"/>
<rect x="694.76" y="137.41" width="39.15" height="16.57" fill="#2829ad"/>
<rect x="733.81" y="137.41" width="39.15" height="16.57" fill="#1a1ba8"/>
<rect x="772.86" y="137.41" width="39.15" height="16.57" fill="#1414a6"/>
<rect x="811.90" y="137.41" width="39.15" height="16.57" fill="#1010a5"/>
<rect x="850.95" y="137.41" width="39.15" height="16.57" fill="#0f0fa4"/>
<rect x="70.00" y="153.88" width="39.15" height="16.57" fill="#0c0ca4"/>
<rect x="109.05" y="153.88" width="39.15" height="16.57" fill="#0b0ba3"/>
<rect x="148.10" y="153.88" width="39.15" height="16.57" fill="#0808a2"/>
<rect x="187.14" y="153.88" width="39.15" height="16.57" fill="#0404a1"/>
<rect x="226.19" y="153.88" width="39.15" height="16.57" fill="#0202a0"/>
<rect x="265.24" y="153.88" width="39.15" height="16.57" fill="#0b0ba3"/>
<rect x="304.29" y="153.88" width="39.15" height="16.57" fill="#3131b0"/>
<rect x="343.33" y="153.88" width="39.15" height="16.57" fill="#8788cc"/>
<rect x="382.38" y="153.88" width="39.15" height="16.57" fill="#f5eae3"/>
<rect x="421.43" y="153.88" width="39.15" height="16.57" fill="#fb9795"/>
<rect x="460.48" y="153.88" width="39.15" height="16.57" fill="#fe6c6b"/>
<rect x="499.52" y="153.88" width="39.15" height="16.57" fill="#fc7d7c"/>
<rect x="538.57" y="153.88" width="39.15" height="16.57" fill="#f8bdb9"/>
<rect x="577.62" y="153.88" width="39.15" height="16.57" fill="#dadbe7"/>
<rect x="616.67" y="153.88" width="39.15" height="16.57" fill="#7d7ec8"/>
<rect x="655.71" y="153.88" width="39.15" height="16.57" fill="#4646b6"/>
<rect x="694.76" y="153.88" width="39.15" height="16.57" fill="#2929ad"/>
<rect x="733.81" y="153.88" width="39.15" height="16.57" fill="#1b1ba8"/>
<rect x="772.86" y="153.88" width="39.15" height="16.57" fill="#1414a6"/>
<rect x="811.90" y="153.88" width="39.15" height="16.57" fill="#1010a5"/>
<rect x="850.95" y="153.88" width="39.15" height="16.57" fill="#0f0fa4"/>
<rect x="70.00" y="170.35" width="39.15" height="16.57" fill="#0c0ca4"/>
<rect x="109.05" y="170.35" width="39.15" height="16.57" fill="#0b0ba3"/>
<rect x="148.10" y="170.35" width="39.15" height="16.57" fill="#0808a2"/>
<rect x="187.14" y="170.35" width="39.15" height="16.57" fill="#0404a1"/>
<rect x="226.19" y="170.35" width="39.15" height="16.57" fill="#0202a0"/>
<rect x="265.24" y="170.35" width="39.15" height="16.57" fill="#0c0ca4"/>
<rect x="304.29" y="170.35" width="39.15" height="16.57" fill="#3334b0"/>
<rect x="343.33" y="170.35" width="39.15" height="16.57" fill="#898acc"/>
<rect x="382.38" y="170.35" width="39.15" height="16.57" fill="#f5eae3"/>
<rect x="421.43" y="170.35" width="39.15" height="16.57" fill="#fb9997"/>
<rect x="460.48" y="170.35" width="39.15" height="16.57" fill="#fd6f6e"/>
<rect x="499.52" y="170.35" width="39.15" height="16.57" fill="#fc7f7e"/>
<rect x="538.57" y="170.35" width="39.15" height="16.57" fill="#f8bdb9"/>
<rect x="577.62" y="170.35" width="39.15" height="16.57" fill="#dbdde7"/>
<rect x="616.67" y="170.35" width="39.15" height="16.57" fill="#7f80c9"/>
<rect x="655.71" y="170.35" width="39.15" height="16.57" fill="#4747b7"/>
<rect x="694.76" y="170.35" width="39.15" height="16.57" fill="#2a2aad"/>
<rect x="733.81" y="170.35" width="39.15" height="16.57" fill="#1b1ba9"/>
<rect x="772.86" y="170.35" width="39.15" height="16.57" fill="#1414a6"/>
<rect x="811.90" y="170.35" width="39.15" height="16.57" fill="#1011a5"/>
<rect x="850.95" y="170.35" width="39.15" height="16.57" fill="#0f0fa5"/>
<rect x="70.00" y="186.82" width="39.15" height="16.57" fill="#0c0ca4"/>
<rect x="109.05" y="186.82" width="39.15" height="16.57" fill="#0b0ba3"/>
<rect x="148.10" y="186.82" width="39.15" height="16.57" fill="#0808a2"/>
<rect x="187.14" y="186.82" width="39.15" height="16.57" fill="#0404a1"/>
<rect x="226.19" y="186.82" width="39.15" height="16.57" fill="#0303a1"/>
<rect x="265.24" y="186.82" width="39.15" height="16.57" fill="#0e0ea4"/>
<rect x="304.29" y="186.82" width="39.15" height="16.57" fill="#3636b1"/>
<rect x="343.33" y="186.82" width="39.15" height="16.57" fill="#8b8ccd"/>
<rect x="382.38" y="186.82" width="39.15" height="16.57" fill="#f5eae3"/>
<rect x="421.43" y="186.82" width="39.15" height="16.57" fill="#fb9b98"/>
<rect x="460.48" y="186.82" width="39.15" height="16.57" fill="#fd7271"/>
<rect x="499.52" y="186.82" width="39.15" height="16.57" fill="#fc8280"/>
<rect x="538.57" y="186.82" width="39.15" height="16.57" fill="#f8beba"/>
<rect x="577.62" y="186.82" width="39.15" height="16.57" fill="#dcdee8"/>
<rect x="616.67" y="186.82" width="39.15" height="16.57" fill="#8182ca"/>
<rect x="655.71" y="186.82" width="39.15" height="16.57" fill="#4849b7"/>
<rect x="694.76" y="186.82" width="39.15" height="16.57" fill="#2a2bae"/>
<rect x="733.81" y="186.82" width="39.15" height="16.57" fill="#1c1ca9"/>
<rect x="772.86" y="186.82" width="39.15" height="16.57" fill="#1414a6"/>
<rect x="811.90" y="186.82" width="39.15" height="16.57" fill="#1011a5"/>
<rect x="850.95" y="186.82" width="39.15" height="16.57" fill="#0f0fa5"/>
<rect x="70.00" y="203.29" width="39.15" height="16.57" fill="#0c0ca4"/>
<rect x="109.05" y="203.29" width="39.15" height="16.57" fill="#0b0ba3"/>
<rect x="148.10" y="203.29" width="39.15" height="16.57" fill="#0808a2"/>
<rect x="187.14" y="203.29" width="39.15" height="16.57" fill="#0404a1"/>
<rect x="226.19" y="203.29" width="39.15" height="16.57" fill="#0303a1"/>
<rect x="265.24" y="203.29" width="39.15" height="16.57" fill="#0f0fa5"/>
<rect x="304.29" y="203.29" width="39.15" height="16.57" fill="#3838b2"/>
<rect x="343.33" y="203.29" width="39.15" height="16.57" fill="#8d8ece"/>
<rect x="382.38" y="203.29" width="39.15" height="16.57" fill="#f5eae3"/>
<rect x="421.43" y="203.29" width="39.15" height="16.57" fill="#fa9d9a"/>
<rect x="460.48" y="203.29" width="39.15" height="16.57" fill="#fd7574"/>
<rect x="499.52" y="203.29" width="39.15" height="16.57" fill="#fc8482"/>
<rect x="538.57" y="203.29" width="39.15" height="16.57" fill="#f8bfba"/>
<rect x="577.62" y="203.29" width="39.15" height="16.57" fill="#dedfe8"/>
<rect x="616.67" y="203.29" width="39.15" height="16.57" fill="#8284ca"/>
<rect x="655.71" y="203.29" width="39.15" height="16.57" fill="#4a4ab8"/>
<rect x="694.76" y="203.29" width="39.15" height="16.57" fill="#2b2bae"/>
<rect x="733.81" y="203.29" width="39.15" height="16.57" fill="#1c1ca9"/>
<rect x="772.86" y="203.29" width="39.15" height="16.57" fill="#1415a6"/>
<rect x="811.90" y="203.29" width="39.15" height="16.57" fill="#1111a5"/>
<rect x="850.95" y="203.29" width="39.15" height="16.57" fill="#0f0fa5"/>
<rect x="70.00" y="219.76" width="39.15" height="16.57" fill="#0c0ca4"/>
<rect x="109.05" y="219.76" width="39.15" height="16.57" fill="#0b0ba3"/>
<rect x="148.10" y="219.76" width="39.15" height="16.57" fill="#0808a2"/>
<rect x="187.14" y="219.76" width="39.15" height="16.57" fill="#0404a1"/>
<rect x="226.19" y="219.76" width="39.15" height="16.57" fill="#0404a1"/>
<rect x="265.24" y="219.76" width="39.15" height="16.57" fill="#1011a5"/>
<rect x="304.29" y="219.76" width="39.15" height="16.57" fill="#3a3bb3"/>
<rect x="343.33" y="219.76" width="39.15" height="16.57" fill="#8f90ce"/>
<rect x="382.38" y="219.76" width="39.15" height="16.57" fill="#f5eae3"/>
<rect x="421.43" y="219.76" width="39.15" height="16.57" fill="#fa9f9c"/>
<rect x="460.48" y="219.76" width="39.15" height="16.57" fill="#fd7776"/>
<rect x="499.52" y="219.76" width="39.15" height="16.57" fill="#fc8684"/>
<rect x="538.57" y="219.76" width="39.15" height="16.57" fill="#f8bfbb"/>
<rect x="577.62" y="219.76" width="39.15" height="16.57" fill="#dfe0e8"/>
<rect x="616.67" y="219.76" width="39.15" height="16.57" fill="#8485cb"/>
<rect x="655.71" y="219.76" width="39.15" height="16.57" fill="#4b4bb8"/>
<rect x="694.76" y="219.76" width="39.15" height="16.57" fill="#2c2cae"/>
<rect x="733.81" y="219.76" width="39.15" height="16.57" fill="#1c1da9"/>
<rect x="772.86" y="219.76" width="39.15" height="16.57" fill="#1515a6"/>
<rect x="811.90" y="219.76" width="39.15" height="16.57" fill="#1111a5"/>
<rect x="850.95" y="219.76" width="39.15" height="16.57" fill="#0f0fa5"/>
<rect x="70.00" y="236.24" width="39.15" height="16.57" fill="#0c0ca4"/>
<rect x="109.05" y="236.24" width="39.15" height="16.57" fill="#0b0ba3"/>
<rect x="148.10" y="236.24" width="39.15" height="16.57" fill="#0808a2"/>
<rect x="187.14" y="236.24" width="39.15" height="16.57" fill="#0404a1"/>
<rect x="226.19" y="236.24" width="39.15" height="16.57" fill="#0505a1"/>
<rect x="265.24" y="236.24" width="39.15" height="16.57" fill="#1212a6"/>
<rect x="304.29" y="236.24" width="39.15" height="16.57" fill="#3c3db3"/>
<rect x="343.33" y="236.24" width="39.15" height="16.57" fill="#9192cf"/>
<rect x="382.38" y="236.24" width="39.15" height="16.57" fill="#f5eae3"/>
<rect x="421.43" y="236.24" width="39.15" height="16.57" fill="#faa19e"/>
<rect x="460.48" y="236.24" width="39.15" height="16.57" fill="#fd7a79"/>
<rect x="499.52" y="236.24" width="39.15" height="16.57" fill="#fc8886"/>
<rect x="538.57" y="236.24" width="39.15" height="16.57" fill="#f8c0bb"/>
<rect x="577.62" y="236.24" width="39.15" height="16.57" fill="#e0e1e9"/>
<rect x="616.67" y="236.24" width="39.15" height="16.57" fill="#8687cb"/>
<rect x="655.71" y="236.24" width="39.15" height="16.57" fill="#4c4db9"/>
<rect x="694.76" y="236.24" width="39.15" height="16.57" fill="#2d2dae"/>
<rect x="733.81" y="236.24" width="39.15" height="16.57" fill="#1d1da9"/>
<rect x="772.86" y="236.24" width="39.15" height="16.57" fill="#1515a6"/>
<rect x="811.90" y="236.24" width="39.15" height="16.57" fill="#1111a5"/>
<rect x="850.95" y="236.24" width="39.15" height="16.57" fill="#0f0fa5"/>
<rect x="70.00" y="252.71" width="39.15" height="16.57" fill="#0c0ca4"/>
<rect x="109.05" y="252.71" width="39.15" height="16.57" fill="#0a0ba3"/>
<rect x="148.10" y="252.71" width="39.15" height="16.57" fill="#0808a2"/>
<rect x="187.14" y="252.71" width="39.15" height="16.57" fill="#0505a1"/>
<rect x="226.19" y="252.71" width="39.15" height="16.57" fill="#0505a1"/>
<rect x="265.24" y="252.71" width="39.15" height="16.57" fill="#1313a6"/>
<rect x="304.29" y="252.71" width="39.15" height="16.57" fill="#3e3fb4"/>
<rect x="343.33" y="252.71" width="39.15" height="16.57" fill="#9394d0"/>
<rect x="382.38" y="252.71" width="39.15" height="16.57" fill="#f5eae3"/>
<rect x="421.43" y="252.71" width="39.15" height="16.57" fill="#faa29f"/>
<rect x="460.48" y="252.71" width="39.15" height="16.57" fill="#fd7d7b"/>
<rect x="499.52" y="252.71" width="39.15" height="16.57" fill="#fc8a88"/>
<rect x="538.57" y="252.71" width="39.15" height="16.57" fill="#f8c0bc"/>
<rect x="577.62" y="252.71" width="39.15" height="16.57" fill="#e1e2e9"/>
<rect x="616.67" y="252.71" width="39.15" height="16.57" fill="#8789cc"/>
<rect x="655.71" y="252.71" width="39.15" height="16.57" fill="#4d4eb9"/>
<rect x="694.76" y="252.71" width="39.15" height="16.57" fill="#2d2eae"/>
<rect x="733.81" y="252.71" width="39.15" height="16.57" fill="#1d1da9"/>
<rect x="772.86" y="252.71" width="39.15" height="16.57" fill="#1515a6"/>
<rect x="811.90" y="252.71" width="39.15" height="16.57" fill="#1111a5"/>
<rect x="850.95" y="252.71" width="39.15" height="16.57" fill="#0f0fa5"/>
<rect x="70.00" y="269.18" width="39.15" height="16.57" fill="#0c0ca4"/>
<rect x="109.05" y="269.18" width="39.15" height="16.57" fill="#0a0aa3"/>
<rect x="148.10" y="269.18" width="39.15" height="16.57" fill="#0808a2"/>
<rect x="187.14" y="269.18" width="39.15" height="16.57" fill="#0505a1"/>
<rect x="226.19" y="269.18" width="39.15" height="16.57" fill="#0606a2"/>
<rect x="265.24" y="269.18" width="39.15" height="16.57" fill="#1515a6"/>
<rect x="304.29" y="269.18" width="39.15" height="16.57" fill="#4041b5"/>
<rect x="343.33" y="269.18" width="39.15" height="16.57" fill="#9496d0"/>
<rect x="382.38" y="269.18" width="39.15" height="16.57" fill="#f5eae3"/>
<rect x="421.43" y="269.18" width="39.15" height="16.57" fill="#faa4a1"/>
<rect x="460.48" y="269.18" width="39.15" height="16.57" fill="#fc7f7e"/>
<rect x="499.52" y="269.18" width="39.15" height="16.57" fill="#fb8c8a"/>
<rect x="538.57" y="269.18" width="39.15" height="16.57" fill="#f8c1bc"/>
<rect x="577.62" y="269.18" width="39.15" height="16.57" fill="#e2e3e9"/>
<rect x="616.67" y="269.18" width="39.15" height="16.57" fill="#898acc"/>
<rect x="655.71" y="269.18" width="39.15" height="16.57" fill="#4f4fb9"/>
<rect x="694.76" y="269.18" width="39.15" height="16.57" fill="#2e2faf"/>
<rect x="733.81" y="269.18" width="39.15" height="16.57" fill="#1e1ea9"/>
<rect x="772.86" y="269.18" width="39.15" height="16.57" fill="#1515a7"/>
<rect x="811.90" y="269.18" width="39.15" height="16.57" fill="#1111a5"/>
<rect x="850.95" y="269.18" width="39.15" height="16.57" fill="#0f0fa5"/>
<rect x="70.00" y="285.65" width="39.15" height="16.57" fill="#0c0ca4"/>
<rect x="109.05" y="285.65" width="39.15" height="16.57" fill="#0a0aa3"/>
<rect x="148.10" y="285.65" width="39.15" height="16.57" fill="#0808a2"/>
<rect x="187.14" y="285.65" width="39.15" height="16.57" fill="#0505a1"/>
<rect x="226.19" y="285.65" width="39.15" height="16.57" fill="#0707a2"/>
<rect x="265.24" y="285.65" width="39.15" height="16.57" fill="#1616a7"/>
<rect x="304.29" y="285.65" width="39.15" height="16.57" fill="#4243b5"/>
<rect x="343.33" y="285.65" width="39.15" height="16.57" fill="#9697d1"/>
<rect x="382.38" y="285.65" width="39.15" height="16.57" fill="#f5eae4"/>
<rect x="421.43" y="285.65" width="39.15" height="16.57" fill="#faa6a2"/>
<rect x="460.48" y="285.65" width="39.15" height="16.57" fill="#fc8280"/>
<rect x="499.52" y="285.65" width="39.15" height="16.57" fill="#fb8e8c"/>
<rect x="538.57" y="285.65" width="39.15" height="16.57" fill="#f8c2bd"/>
<rect x="577.62" y="285.65" width="39.15" height="16.57" fill="#e2e4ea"/>
<rect x="616.67" y="285.65" width="39.15" height="16.57" fill="#8b8ccd"/>
<rect x="655.71" y="285.65" width="39.15" height="16.57" fill="#5051ba"/>
<rect x="694.76" y="285.65" width="39.15" height="16.57" fill="#2f2faf"/>
<rect x="733.81" y="285.65" width="39.15" height="16.57" fill="#1e1ea9"/>
<rect x="772.86" y="285.65" width="39.15" height="16.57" fill="#1516a7"/>
<rect x="811.90" y="285.65" width="39.15" height="16.57" fill="#1111a5"/>
<rect x="850.95" y="285.65" width="39.15" height="16.57" fill="#0f10a5"/>
<rect x="70.00" y="302.12" width="39.15" height="16.57" fill="#0c0ca3"/>
<rect x="109.05" y="302.12" width="39.15" height="16.57" fill="#0a0aa3"/>
<rect x="148.10" y="302.12" width="39.15" height="16.57" fill="#0808a2"/>
<rect x="187.14" y="302.12" width="39.15" height="16.57" fill="#0505a1"/>
<rect x="226.19" y="302.12" width="39.15" height="16.57" fill="#0707a2"/>
<rect x="265.24" y="302.12" width="39.15" height="16.57" fill="#1818a7"/>
<rect x="304.29" y="302.12" width="39.15" height="16.57" fill="#4445b6"/>
<rect x="343.33" y="302.12" width="39.15" height="16.57" fill="#9899d1"/>
<rect x="382.38" y="302.12" width="39.15" height="16.57" fill="#f5eae4"/>
<rect x="421.43" y="302.12" width="39.15" height="16.57" fill="#faa7a4"/>
<rect x="460.48" y="302.12" width="39.15" height="16.57" fill="#fc8482"/>
<rect x="499.52" y="302.12" width="39.15" height="16.57" fill="#fb908e"/>
<rect x="538.57" y="302.12" width="39.15" height="16.57" fill="#f8c2be"/>
<rect x="577.62" y="302.12" width="39.15" height="16.57" fill="#e3e5ea"/>
<rect x="616.67" y="302.12" width="39.15" height="16.57" fill="#8c8dcd"/>
<rect x="655.71" y="302.12" width="39.15" height="16.57" fill="#5152ba"/>
<rect x="694.76" y="302.12" width="39.15" height="16.57" fill="#3030af"/>
<rect x="733.81" y="302.12" width="39.15" height="16.57" fill="#1e1faa"/>
<rect x="772.86" y="302.12" width="39.15" height="16.57" fill="#1616a7"/>
<rect x="811.90" y="302.12" width="39.15" height="16.57" fill="#1111a5"/>
<rect x="850.95" y="302.12" width="39.15" height="16.57" fill="#0f10a5"/>
<rect x="70.00" y="318.59" width="39.15" height="16.57" fill="#0c0ca3"/>
<rect x="109.05" y="318.59" width="39.15" height="16.57" fill="#0a0aa3"/>
<rect x="148.10" y="318.59" width="39.15" height="16.57" fill="#0808a2"/>
<rect x="187.14" y="318.59" width="39.15" height="16.57" fill="#0505a1"/>
<rect x="226.19" y="318.59" width="39.15" height="16.57" fill="#0808a2"/>
<rect x="265.24" y="318.59" width="39.15" height="16.57" fill="#1919a8"/>
<rect x="304.29" y="318.59" width="39.15" height="16.57" fill="#4647b7"/>
<rect x="343.33" y="318.59" width="39.15" height="16.57" fill="#999ad2"/>
<rect x="382.38" y="318.59" width="39.15" height="16.57" fill="#f5eae4"/>
<rect x="421.43" y="318.59" width="39.15" height="16.57" fill="#faa9a5"/>
<rect x="460.48" y="318.59" width="39.15" height="16.57" fill="#fc8785"/>
<rect x="499.52" y="318.59" width="39.15" height="16.57" fill="#fb9290"/>
<rect x="538.57" y="318.59" width="39.15" height="16.57" fill="#f8c3be"/>
<rect x="577.62" y="318.59" width="39.15" height="16.57" fill="#e4e6ea"/>
<rect x="616.67" y="318.59" width="39.15" height="16.57" fill="#8d8fce"/>
<rect x="655.71" y="318.59" width="39.15" height="16.57" fill="#5353bb"/>
<rect x="694.76" y="318.59" width="39.15" height="16.57" fill="#3131b0"/>
<rect x="733.81" y="318.59" width="39.15" height="16.57" fill="#1f1faa"/>
<rect x="772.86" y="318.59" width="39.15" height="16.57" fill="#1616a7"/>
<rect x="811.90" y="318.59" width="39.15" height="16.57" fill="#1112a5"/>
<rect x="850.95" y="318.59" width="39.15" height="16.57" fill="#1010a5"/>
<rect x="70.00" y="335.06" width="39.15" height="16.57" fill="#0c0ca3"/>
<rect x="109.05" y="335.06" width="39.15" height="16.57" fill="#0a0aa3"/>
<rect x="148.10" y="335.06" width="39.15" height="16.57" fill="#0808a2"/>
<rect x="187.14" y="335.06" width="39.15" height="16.57" fill="#0606a2"/>
<rect x="226.19" y="335.06" width="39.15" height="16.57" fill="#0909a3"/>
<rect x="265.24" y="335.06" width="39.15" height="16.57" fill="#1a1ba8"/>
<rect x="304.29" y="335.06" width="39.15" height="16.57" fill="#4849b7"/>
<rect x="343.33" y="335.06" width="39.15" height="16.57" fill="#9b9cd2"/>
<rect x="382.38" y="335.06" width="39.15" height="16.57" fill="#f5eae4"/>
<rect x="421.43" y="335.06" width="39.15" height="16.57" fill="#faaaa7"/>
<rect x="460.48" y="335.06" width="39.15" height="16.57" fill="#fc8987"/>
<rect x="499.52" y="335.06" width="39.15" height="16.57" fill="#fb9491"/>
<rect x="538.57" y="335.06" width="39.15" height="16.57" fill="#f8c4bf"/>
<rect x="577.62" y="335.06" width="39.15" height="16.57" fill="#e5e6ea"/>
<rect x="616.67" y="335.06" width="39.15" height="16.57" fill="#8f90ce"/>
<rect x="655.71" y="335.06" width="39.15" height="16.57" fill="#5455bb"/>
<rect x="694.76" y="335.06" width="39.15" height="16.57" fill="#3132b0"/>
<rect x="733.81" y="335.06" width="39.15" height="16.57" fill="#1f1faa"/>
<rect x="772.86" y="335.06" width="39.15" height="16.57" fill="#1616a7"/>
<rect x="811.90" y="335.06" width="39.15" height="16.57" fill="#1212a5"/>
<rect x="850.95" y="335.06" width="39.15" height="16.57" fill="#1010a5"/>
<rect x="70.00" y="351.53" width="39.15" height="16.57" fill="#0b0ca3"/>
<rect x="109.05" y="351.53" width="39.15" height="16.57" fill="#0a0aa3"/>
<rect x="148.10" y="351.53" width="39.15" height="16.57" fill="#0808a2"/>
<rect x="187.14" y="351.53" width="39.15" height="16.57" fill="#0606a2"/>
<rect x="226.19" y="351.53" width="39.15" height="16.57" fill="#090aa3"/>
<rect x="265.24" y="351.53" width="39.15" height="16.57" fill="#1c1ca9"/>
<rect x="304.29" y="351.53" width="39.15" height="16.57" fill="#4a4bb8"/>
<rect x="343.33" y="351.53" width="39.15" height="16.57" fill="#9c9dd3"/>
<rect x="382.38" y="351.53" width="39.15" height="16.57" fill="#f5ebe4"/>
<rect x="421.43" y="351.53" width="39.15" height="16.57" fill="#f9aca8"/>
<rect x="460.48" y="351.53" width="39.15" height="16.57" fill="#fc8b89"/>
<rect x="499.52" y="351.53" width="39.15" height="16.57" fill="#fb9693"/>
<rect x="538.57" y="351.53" width="39.15" height="16.57" fill="#f8c4bf"/>
<rect x="577.62" y="351.53" width="39.15" height="16.57" fill="#e5e7ea"/>
<rect x="616.67" y="351.53" width="39.15" height="16.57" fill="#9091cf"/>
<rect x="655.71" y="351.53" width="39.15" height="16.57" fill="#5556bb"/>
<rect x="694.76" y="351.53" width="39.15" height="16.57" fill="#3233b0"/>
<rect x="733.81" y="351.53" width="39.15" height="16.57" fill="#2020aa"/>
<rect x="772.86" y="351.53" width="39.15" height="16.57" fill="#1616a7"/>
<rect x="811.90" y="351.53" width="39.15" height="16.57" fill="#1212a5"/>
<rect x="850.95" y="351.53" width="39.15" height="16.57" fill="#1010a5"/>
<text x="70" y="392" font-family="Arial, sans-serif" font-size="12" fill="#52606d">node index -></text>
<text x="20" y="228.00" font-family="Arial, sans-serif" font-size="12" fill="#52606d" transform="rotate(-90 20,228.00)">time / step</text>
<rect x="70" y="410" width="820" height="82" fill="#ffffff" stroke="#cbd2d9"/>
<polyline points="70.00,410.00 121.25,413.18 172.50,416.60 223.75,420.28 275.00,424.22 326.25,428.41 377.50,432.86 428.75,437.57 480.00,442.54 531.25,447.78 582.50,453.28 633.75,459.05 685.00,465.09 736.25,471.40 787.50,477.99 838.75,484.86 890.00,492.00" fill="none" stroke="#1f7a8c" stroke-width="3"/>
<text x="70" y="400" font-family="Arial, sans-serif" font-size="13" fill="#1f2933">centroid trace (10.0640 to 10.0641)</text>
</svg>
