<svg xmlns="http://www.w3.org/2000/svg" width="980" height="540" viewBox="0 0 980 540">
<rect width="100%" height="100%" fill="#fbfbf8"/>
<text x="40" y="42" font-family="Arial, sans-serif" font-size="24" font-weight="700" fill="#1f2933">M1: apparent centroid displacement</text>
<text x="40" y="68" font-family="Arial, sans-serif" font-size="14" fill="#52606d">Basin replacement moves the centroid but fails identity continuity.</text>
<rect x="70" y="88" width="820" height="280" fill="#ffffff" stroke="#cbd2d9"/>
<rect x="70.00" y="88.00" width="39.15" height="140.10" fill="#0000a0"/>
<rect x="109.05" y="88.00" width="39.15" height="140.10" fill="#0000a0"/>
<rect x="148.10" y="88.00" width="39.15" height="140.10" fill="#0000a0"/>
<rect x="187.14" y="88.00" width="39.15" height="140.10" fill="#0101a0"/>
<rect x="226.19" y="88.00" width="39.15" height="140.10" fill="#0505a1"/>
<rect x="265.24" y="88.00" width="39.15" height="140.10" fill="#1515a6"/>
<rect x="304.29" y="88.00" width="39.15" height="140.10" fill="#4142b5"/>
<rect x="343.33" y="88.00" width="39.15" height="140.10" fill="#9d9ed3"/>
<rect x="382.38" y="88.00" width="39.15" height="140.10" fill="#f7d8d2"/>
<rect x="421.43" y="88.00" width="39.15" height="140.10" fill="#fc8583"/>
<rect x="460.48" y="88.00" width="39.15" height="140.10" fill="#fe6161"/>
<rect x="499.52" y="88.00" width="39.15" height="140.10" fill="#fc8583"/>
<rect x="538.57" y="88.00" width="39.15" height="140.10" fill="#f7d8d2"/>
<rect x="577.62" y="88.00" width="39.15" height="140.10" fill="#9d9ed3"/>
<rect x="616.67" y="88.00" width="39.15" height="140.10" fill="#4142b5"/>
<rect x="655.71" y="88.00" width="39.15" height="140.10" fill="#1515a6"/>
<rect x="694.76" y="88.00" width="39.15" height="140.10" fill="#0505a1"/>
<rect x="733.81" y="88.00" width="39.15" height="140.10" fill="#0101a0"/>
<rect x="772.86" y="88.00" width="39.15" height="140.10" fill="#0000a0"/>
<rect x="811.90" y="88.00" width="39.15" height="140.10" fill="#0000a0"/>
<rect x="850.95" y="88.00" width="39.15" height="140.10" fill="#0000a0"/>
<rect x="70.00" y="228.00" width="39.15" height="140.10" fill="#0404a1"/>
<rect x="109.05" y="228.00" width="39.15" height="140.10" fill="#0404a1"/>
<rect x="148.10" y="228.00" width="39.15" height="140.10" fill="#0404a1"/>
<rect x="187.14" y="228.00" width="39.15" height="140.10" fill="#0404a1"/>
<rect x="226.19" y="228.00" width="39.15" height="140.10" fill="#0404a1"/>
<rect x="265.24" y="228.00" width="39.15" height="140.10" fill="#0404a1"/>
<rect x="304.29" y="228.00" width="39.15" height="140.10" fill="#0404a1"/>
<rect x="343.33" y="228.00" width="39.15" height="140.10" fill="#0404a1"/>
<rect x="382.38" y="228.00" width="39.15" height="140.10" fill="#0404a1"/>
<rect x="421.43" y="228.00" width="39.15" height="140.10" fill="#0404a1"/>
<rect x="460.48" y="228.00" width="39.15" height="140.10" fill="#0505a1"/>
<rect x="499.52" y="228.00" width="39.15" height="140.10" fill="#0909a3"/>
<rect x="538.57" y="228.00" width="39.15" height="140.10" fill="#191aa8"/>
<rect x="577.62" y="228.00" width="39.15" height="140.10" fill="#4646b6"/>
<rect x="616.67" y="228.00" width="39.15" height="140.10" fill="#a2a3d4"/>
<rect x="655.71" y="228.00" width="39.15" height="140.10" fill="#f7d5d0"/>
<rect x="694.76" y="228.00" width="39.15" height="140.10" fill="#fc8280"/>
<rect x="733.81" y="228.00" width="39.15" height="140.10" fill="#ff5f5f"/>
<rect x="772.86" y="228.00" width="39.15" height="140.10" fill="#fc8280"/>
<rect x="811.90" y="228.00" width="39.15" height="140.10" fill="#f7d5d0"/>
<rect x="850.95" y="228.00" width="39.15" height="140.10" fill="#a2a3d4"/>
<text x="70" y="392" font-family="Arial, sans-serif" font-size="12" fill="#52606d">node index -></text>
<text x="20" y="228.00" font-family="Arial, sans-serif" font-size="12" fill="#52606d" transform="rotate(-90 20,228.00)">time / step</text>
<rect x="70" y="410" width="820" height="82" fill="#ffffff" stroke="#cbd2d9"/>
<polyline points="70.00,492.00 890.00,410.00" fill="none" stroke="#1f7a8c" stroke-width="3"/>
<text x="70" y="400" font-family="Arial, sans-serif" font-size="13" fill="#1f2933">centroid trace (10.0000 to 10.6266)</text>
</svg>
