<svg xmlns="http://www.w3.org/2000/svg" width="980" height="540" viewBox="0 0 980 540">
<rect width="100%" height="100%" fill="#fbfbf8"/>
<text x="40" y="42" font-family="Arial, sans-serif" font-size="24" font-weight="700" fill="#1f2933">M4: coordinated boundary response</text>
<text x="40" y="68" font-family="Arial, sans-serif" font-size="14" fill="#52606d">State-mediated boundary coupling; movement claims remain blocked.</text>
<rect x="80" y="100" width="800" height="330" fill="#ffffff" stroke="#cbd2d9"/>
<polyline points="80.00,102.73 101.05,101.36 122.11,100.00 143.16,100.00 164.21,100.55 185.26,100.55 206.32,100.55 227.37,100.55 248.42,100.55 269.47,100.55 290.53,100.55 311.58,101.09 332.63,101.09 353.68,100.55 374.74,100.00 395.79,100.00 416.84,100.55 437.89,100.55 458.95,100.55 480.00,100.55 501.05,100.55 522.11,100.55 543.16,100.55 564.21,101.09 585.26,101.09 606.32,100.55 627.37,100.00 648.42,100.00 669.47,100.55 690.53,100.55 711.58,100.55 732.63,100.55 753.68,100.55 774.74,100.55 795.79,100.55 816.84,101.09 837.89,101.09 858.95,100.55 880.00,100.00" fill="none" stroke="#1f7a8c" stroke-width="3"/>
<rect x="80" y="456" width="14" height="14" fill="#1f7a8c"/>
<text x="100" y="468" font-family="Arial, sans-serif" font-size="12" fill="#1f2933">centroid</text>
<polyline points="80.00,364.75 101.05,360.66 122.11,356.57 143.16,356.57 164.21,358.21 185.26,358.21 206.32,358.21 227.37,358.21 248.42,358.21 269.47,358.21 290.53,358.21 311.58,359.85 332.63,359.85 353.68,358.21 374.74,356.57 395.79,356.57 416.84,358.21 437.89,358.21 458.95,358.21 480.00,358.21 501.05,358.21 522.11,358.21 543.16,358.21 564.21,359.85 585.26,359.85 606.32,358.21 627.37,356.57 648.42,356.57 669.47,358.21 690.53,358.21 711.58,358.21 732.63,358.21 753.68,358.21 774.74,358.21 795.79,358.21 816.84,359.85 837.89,359.85 858.95,358.21 880.00,356.57" fill="none" stroke="#d1495b" stroke-width="3"/>
<rect x="230" y="456" width="14" height="14" fill="#d1495b"/>
<text x="250" y="468" font-family="Arial, sans-serif" font-size="12" fill="#1f2933">front_mass</text>
<polyline points="80.00,364.75 101.05,368.85 122.11,372.94 143.16,372.94 164.21,371.30 185.26,371.30 206.32,371.30 227.37,371.30 248.42,371.30 269.47,371.30 290.53,371.30 311.58,369.66 332.63,369.66 353.68,371.30 374.74,372.94 395.79,372.94 416.84,371.30 437.89,371.30 458.95,371.30 480.00,371.30 501.05,371.30 522.11,371.30 543.16,371.30 564.21,369.66 585.26,369.66 606.32,371.30 627.37,372.94 648.42,372.94 669.47,371.30 690.53,371.30 711.58,371.30 732.63,371.30 753.68,371.30 774.74,371.30 795.79,371.30 816.84,369.66 837.89,369.66 858.95,371.30 880.00,372.94" fill="none" stroke="#edae49" stroke-width="3"/>
<rect x="380" y="456" width="14" height="14" fill="#edae49"/>
<text x="400" y="468" font-family="Arial, sans-serif" font-size="12" fill="#1f2933">rear_mass</text>
<polyline points="80.00,430.00 101.05,425.91 122.11,421.82 143.16,421.82 164.21,423.45 185.26,423.45 206.32,423.45 227.37,423.45 248.42,423.45 269.47,423.45 290.53,423.45 311.58,425.09 332.63,425.09 353.68,423.45 374.74,421.82 395.79,421.82 416.84,423.45 437.89,423.45 458.95,423.45 480.00,423.45 501.05,423.45 522.11,423.45 543.16,423.45 564.21,425.09 585.26,425.09 606.32,423.45 627.37,421.82 648.42,421.82 669.47,423.45 690.53,423.45 711.58,423.45 732.63,423.45 753.68,423.45 774.74,423.45 795.79,423.45 816.84,425.09 837.89,425.09 858.95,423.45 880.00,421.82" fill="none" stroke="#2f7d32" stroke-width="3"/>
<rect x="530" y="456" width="14" height="14" fill="#2f7d32"/>
<text x="550" y="468" font-family="Arial, sans-serif" font-size="12" fill="#1f2933">coupling_amount</text>
<polyline points="80.00,430.00 101.05,421.82 122.11,413.64 143.16,413.64 164.21,416.91 185.26,416.91 206.32,416.91 227.37,416.91 248.42,416.91 269.47,416.91 290.53,416.91 311.58,420.18 332.63,420.18 353.68,416.91 374.74,413.64 395.79,413.64 416.84,416.91 437.89,416.91 458.95,416.91 480.00,416.91 501.05,416.91 522.11,416.91 543.16,416.91 564.21,420.18 585.26,420.18 606.32,416.91 627.37,413.64 648.42,413.64 669.47,416.91 690.53,416.91 711.58,416.91 732.63,416.91 753.68,416.91 774.74,416.91 795.79,416.91 816.84,420.18 837.89,420.18 858.95,416.91 880.00,413.64" fill="none" stroke="#5b5f97" stroke-width="3"/>
<rect x="680" y="456" width="14" height="14" fill="#5b5f97"/>
<text x="700" y="468" font-family="Arial, sans-serif" font-size="12" fill="#1f2933">pulse_signal</text>
</svg>
