<svg xmlns="http://www.w3.org/2000/svg" width="980" height="540" viewBox="0 0 980 540">
<rect width="100%" height="100%" fill="#fbfbf8"/>
<text x="40" y="42" font-family="Arial, sans-serif" font-size="24" font-weight="700" fill="#1f2933">M5: direction-parity repeated boundary response</text>
<text x="40" y="68" font-family="Arial, sans-serif" font-size="14" fill="#52606d">Forward and true reversed E3 lanes have opposite signed centroid response.</text>
<rect x="80" y="100" width="800" height="330" fill="#ffffff" stroke="#cbd2d9"/>
<polyline points="80.00,102.73 101.05,101.36 122.11,100.00 143.16,100.00 164.21,100.55 185.26,100.55 206.32,100.55 227.37,100.55 248.42,100.55 269.47,100.55 290.53,100.55 311.58,101.09 332.63,101.09 353.68,100.55 374.74,100.00 395.79,100.00 416.84,100.55 437.89,100.55 458.95,100.55 480.00,100.55 501.05,100.55 522.11,100.55 543.16,100.55 564.21,101.09 585.26,101.09 606.32,100.55 627.37,100.00 648.42,100.00 669.47,100.55 690.53,100.55 711.58,100.55 732.63,100.55 753.68,100.55 774.74,100.55 795.79,100.55 816.84,101.09 837.89,101.09 858.95,100.55 880.00,100.00" fill="none" stroke="#1f7a8c" stroke-width="3"/>
<rect x="80" y="456" width="14" height="14" fill="#1f7a8c"/>
<text x="100" y="468" font-family="Arial, sans-serif" font-size="12" fill="#1f2933">forward_centroid</text>
<polyline points="80.00,102.73 101.62,105.45 123.24,105.45 144.86,104.91 166.49,104.91 188.11,104.91 209.73,104.91 231.35,104.91 252.97,104.91 274.59,104.91 296.22,104.36 317.84,104.36 339.46,104.91 361.08,105.45 382.70,105.45 404.32,104.91 425.95,104.91 447.57,104.91 469.19,104.91 490.81,104.91 512.43,104.91 534.05,104.91 555.68,104.36 577.30,104.36 598.92,104.91 620.54,105.45 642.16,105.45 663.78,104.91 685.41,104.91 707.03,104.91 728.65,104.91 750.27,104.91 771.89,104.91 793.51,104.91 815.14,104.36 836.76,104.36 858.38,104.91 880.00,105.45" fill="none" stroke="#d1495b" stroke-width="3"/>
<rect x="230" y="456" width="14" height="14" fill="#d1495b"/>
<text x="250" y="468" font-family="Arial, sans-serif" font-size="12" fill="#1f2933">reversed_centroid</text>
<polyline points="80.00,430.00 101.05,425.91 122.11,421.82 143.16,421.82 164.21,423.45 185.26,423.45 206.32,423.45 227.37,423.45 248.42,423.45 269.47,423.45 290.53,423.45 311.58,425.09 332.63,425.09 353.68,423.45 374.74,421.82 395.79,421.82 416.84,423.45 437.89,423.45 458.95,423.45 480.00,423.45 501.05,423.45 522.11,423.45 543.16,423.45 564.21,425.09 585.26,425.09 606.32,423.45 627.37,421.82 648.42,421.82 669.47,423.45 690.53,423.45 711.58,423.45 732.63,423.45 753.68,423.45 774.74,423.45 795.79,423.45 816.84,425.09 837.89,425.09 858.95,423.45 880.00,421.82" fill="none" stroke="#edae49" stroke-width="3"/>
<rect x="380" y="456" width="14" height="14" fill="#edae49"/>
<text x="400" y="468" font-family="Arial, sans-serif" font-size="12" fill="#1f2933">forward_coupling</text>
<polyline points="80.00,430.00 101.62,421.82 123.24,421.82 144.86,423.45 166.49,423.45 188.11,423.45 209.73,423.45 231.35,423.45 252.97,423.45 274.59,423.45 296.22,425.09 317.84,425.09 339.46,423.45 361.08,421.82 382.70,421.82 404.32,423.45 425.95,423.45 447.57,423.45 469.19,423.45 490.81,423.45 512.43,423.45 534.05,423.45 555.68,425.09 577.30,425.09 598.92,423.45 620.54,421.82 642.16,421.82 663.78,423.45 685.41,423.45 707.03,423.45 728.65,423.45 750.27,423.45 771.89,423.45 793.51,423.45 815.14,425.09 836.76,425.09 858.38,423.45 880.00,421.82" fill="none" stroke="#2f7d32" stroke-width="3"/>
<rect x="530" y="456" width="14" height="14" fill="#2f7d32"/>
<text x="550" y="468" font-family="Arial, sans-serif" font-size="12" fill="#1f2933">reversed_coupling</text>
</svg>
